<?xml version="1.0" encoding="utf-8"?>
<!-- Generator: Adobe Illustrator 20.0.0, SVG Export Plug-In . SVG Version: 6.00 Build 0)  -->
<!DOCTYPE svg PUBLIC "-//W3C//DTD SVG 1.1//EN" "http://www.w3.org/Graphics/SVG/1.1/DTD/svg11.dtd">
<svg version="1.1" id="Calque_1" xmlns="http://www.w3.org/2000/svg" xmlns:xlink="http://www.w3.org/1999/xlink" x="0px" y="0px"
	 viewBox="0 0 635 248.3" style="enable-background:new 0 0 635 248.3;" xml:space="preserve">
<g>
	<path d="M264.8,154.8c0-45.8,30.7-78.1,76.4-78.1c32.3,0,46.2,13.1,46.2,13.1l-9.4,25.3c0,0-13.9-9.8-33.9-9.8
		c-24.9,0-43.7,18.4-43.7,49.5c0,31.5,19.2,49.1,43.7,49.1c20,0,33.9-9.8,33.9-9.8l9.4,24.9c0,0-13.5,13.5-45.8,13.5
		C295.9,232,264.8,199.7,264.8,154.8z"/>
	<path d="M419.7,14.5h34.7v214.2h-34.7V14.5z"/>
	<path d="M498.2,14.5H533v214.2h-34.7V14.5z"/>
	<path d="M576.3,79.9h34.7v148.8h-34.7V79.9z"/>
</g>
<path d="M201.5,65.2l-83.8-40.5L33.8,65.2L13,156l58,72.8h92.8l58-72.8L201.5,65.2z M162.6,167.8l-45,21.7l-45-21.7l-11-48.6
	l31.1-39.2h49.9l31.1,39.2L162.6,167.8z"/>
<path d="M612.7,17l-18.8-9l-18.8,9l-4.5,20.4l13.1,16.4h20.8l13.1-16.4L612.7,17z"/>
</svg>
