<?xml version="1.0" standalone="no"?>
<!DOCTYPE svg PUBLIC "-//W3C//DTD SVG 20010904//EN"
 "http://www.w3.org/TR/2001/REC-SVG-20010904/DTD/svg10.dtd">
<svg version="1.0" xmlns="http://www.w3.org/2000/svg"
 width="260.000000pt" height="260.000000pt" viewBox="0 0 260.000000 260.000000"
 preserveAspectRatio="xMidYMid meet">
<metadata>
Created by potrace 1.11, written by Peter Selinger 2001-2013
</metadata>
<g transform="translate(0.000000,260.000000) scale(0.100000,-0.100000)"
fill="#000000" stroke="none">
<path d="M1255 2329 c-50 -24 -360 -171 -440 -209 -33 -15 -135 -64 -226 -108
l-165 -79 -17 -74 c-9 -41 -31 -135 -47 -209 -17 -74 -33 -146 -36 -160 -3
-14 -10 -43 -16 -65 -5 -22 -11 -47 -13 -55 -2 -8 -12 -54 -24 -102 -11 -48
-22 -98 -25 -110 -2 -13 -11 -54 -20 -91 l-16 -69 37 -46 c21 -26 43 -52 48
-58 6 -6 124 -153 264 -327 l255 -317 486 0 485 0 175 217 c96 119 180 221
185 227 6 6 63 78 128 159 l118 148 -81 347 c-45 191 -83 356 -85 367 -3 11
-14 65 -27 119 l-22 99 -184 89 c-101 48 -185 88 -186 88 -2 0 -91 42 -199 94
-201 97 -306 146 -310 145 -1 0 -20 -9 -42 -20z m324 -571 c8 -13 31 -43 52
-68 130 -153 249 -307 249 -323 0 -9 -13 -72 -29 -140 -16 -67 -41 -175 -56
-239 -27 -116 -28 -117 -64 -131 -33 -14 -341 -161 -402 -193 -23 -11 -31 -11
-65 6 -86 42 -342 163 -386 182 -45 19 -51 27 -63 89 -10 48 -88 388 -94 409
-7 21 6 42 88 145 53 66 98 122 101 125 3 3 34 40 69 83 l62 77 262 0 c261 0
262 0 276 -22z"/>
</g>
</svg>
